<svg role="img" viewBox="0 0 24 24" xmlns="http://www.w3.org/2000/svg"><title>Microsoft SQL Server</title><path fill="#CC2927" fill-rule="evenodd" d="M3 3.6A9 2.4 0 1 0 21 3.6A9 2.4 0 1 0 3 3.6ZM4.6 3.6A7.4 1.3 0 1 0 19.4 3.6A7.4 1.3 0 1 0 4.6 3.6Z"/><path fill="#CC2927" d="M3 3.6H4.6V20H3ZM19.4 3.6H21V20H19.4Z"/><path fill="#CC2927" d="M3 20A9 2.4 0 0 0 21 20L19.4 18.9A7.4 1.3 0 0 1 4.6 18.9Z"/><text x="12" y="12.5" text-anchor="middle" font-family="Consolas, 'Courier New', monospace" font-size="6.5" font-weight="700">MS</text><text x="12" y="18.4" text-anchor="middle" font-family="Consolas, 'Courier New', monospace" font-size="6.5" font-weight="700">SQL</text></svg>
